# xmcd
#
# Track frame offsets: 
#        182
#        9835
#        21367
#        35730
#        47212
#        67022
#        78725
#        93922
#        107815
#        119647
#        132960
#
# Disc length: 1986 seconds
#
# Revision: 3
# Processed by: cddbd v1.5.2PL0 Copyright (c) Steve Scherf et al.
# Submitted via: ExactAudioCopyFreeDBPlugin 1.0
#
DISCID=9707c00b
DTITLE=Wagoneers - Stout And High
DYEAR=1988
DGENRE=Country
TTITLE0=I Confess
TTITLE1=Help Me Get Over You
TTITLE2=So Many Mistakes
TTITLE3=Please Don't Think I'm Guilty
TTITLE4=Stout And High
TTITLE5=I Wanna Know Her Again
TTITLE6=It'll Take Some Time
TTITLE7=Lie And Say You Love Me
TTITLE8=Every Step Of The Way
TTITLE9=Hell Town
TTITLE10=All Nite
EXTD=
EXTT0=
EXTT1=
EXTT2=
EXTT3=
EXTT4=
EXTT5=
EXTT6=
EXTT7=
EXTT8=
EXTT9=
EXTT10=
PLAYORDER=
